{"accessors":[{"name":"LobsterTail_mesh_1_positions","componentType":5126,"count":1942,"min":[-1.282778024673462,0,-1.282778024673462],"max":[1.282778024673462,0.8566300272941589,1.282778024673462],"type":"VEC3","bufferView":0,"byteOffset":0},{"name":"LobsterTail_mesh_1_normals","componentType":5126,"count":1942,"min":[-0.9876880049705505,-1,-0.9876880049705505],"max":[0.9876890182495117,1,0.9903929829597473],"type":"VEC3","bufferView":0,"byteOffset":23304},{"name":"LobsterTail_mesh_1_texcoords","componentType":5126,"count":1942,"min":[0.0066650002263486385,0.004265000112354755],"max":[0.9937170147895813,0.9877089858055115],"type":"VEC2","bufferView":1,"byteOffset":0},{"name":"LobsterTail_mesh_1_0_indices","componentType":5123,"count":2754,"min":[0],"max":[1941],"type":"SCALAR","bufferView":2,"byteOffset":0}],"asset":{"generator":"obj2gltf","version":"2.0"},"buffers":[{"name":"LobsterTail","byteLength":823100,"uri":"data:application/octet-stream;base64,"}],"bufferViews":[{"name":"bufferView_0","buffer":0,"byteLength":46608,"byteOffset":0,"byteStride":12,"target":34962},{"name":"bufferView_1","buffer":0,"byteLength":15536,"byteOffset":46608,"byteStride":8,"target":34962},{"name":"bufferView_2","buffer":0,"byteLength":5508,"byteOffset":62144,"target":34963},{"buffer":0,"byteOffset":67652,"byteLength":755448}],"images":[{"name":"LobsterTail_BaseColor","mimeType":"image/png","bufferView":3}],"materials":[{"name":"LobsterTail_Mat","pbrMetallicRoughness":{"baseColorTexture":{"index":0},"baseColorFactor":[1,1,1,1],"metallicFactor":0,"roughnessFactor":1},"emissiveFactor":[0,0,0],"alphaMode":"OPAQUE","doubleSided":false}],"meshes":[{"name":"LobsterTail_mesh_1","primitives":[{"attributes":{"POSITION":0,"NORMAL":1,"TEXCOORD_0":2},"indices":3,"material":0,"mode":4}]}],"nodes":[{"name":"LobsterTail_mesh","mesh":0}],"samplers":[{"magFilter":9729,"minFilter":9986,"wrapS":10497,"wrapT":10497}],"scene":0,"scenes":[{"nodes":[0]}],"textures":[{"name":"LobsterTail_BaseColor","sampler":0,"source":0}]}
